<?xml version="1.0" encoding="UTF-8"?>
<svg version="1.1" xmlns="http://www.w3.org/2000/svg" width="1024" height="1024">
<path d="M0 0 C337.92 0 675.84 0 1024 0 C1024 337.92 1024 675.84 1024 1024 C686.08 1024 348.16 1024 0 1024 C0 686.08 0 348.16 0 0 Z " fill="#FEFEFE" transform="translate(0,0)"/>
<path d="M0 0 C1.93674339 -0.01279495 1.93674339 -0.01279495 3.91261292 -0.02584839 C5.3415376 -0.02514938 6.77046219 -0.02422632 8.1993866 -0.02310181 C9.70584446 -0.0290869 11.21229925 -0.03589241 12.71875 -0.04345703 C16.80977816 -0.06112761 20.90072266 -0.06581289 24.99178529 -0.0670886 C27.54873859 -0.06851033 30.10567062 -0.07278035 32.66261864 -0.07808304 C41.58602117 -0.09658781 50.50936395 -0.10475322 59.43278503 -0.10317993 C67.74549457 -0.10197886 76.05794432 -0.12307319 84.37058812 -0.15466726 C91.5112835 -0.18083809 98.65189409 -0.19154687 105.79263705 -0.19026911 C110.05572718 -0.18975965 114.31858651 -0.19543365 118.5816288 -0.21662521 C122.59297994 -0.23602096 126.60388049 -0.2361232 130.61524773 -0.22159195 C132.08458236 -0.21950429 133.5539453 -0.2242023 135.02323151 -0.23631287 C149.24662384 -0.34592222 149.24662384 -0.34592222 154.71965027 4.26742554 C155.38422871 6.40615273 155.38422871 6.40615273 155.71965027 8.26742554 C156.60005735 8.2657168 156.60005735 8.2657168 157.49825042 8.26397353 C192.29512546 8.19682012 227.09198934 8.14535616 261.88891571 8.11422955 C266.06825247 8.11047749 270.2475891 8.10659452 274.42692566 8.10263062 C275.67495675 8.10145022 275.67495675 8.10145022 276.94820059 8.10024597 C290.4151488 8.08719674 303.88205854 8.06354555 317.34898394 8.03596715 C331.17020667 8.00789953 344.99140926 7.99124641 358.81265932 7.98516005 C367.33916365 7.98104643 375.86555922 7.96805998 384.39203007 7.94367614 C390.24120197 7.9278022 396.09031775 7.92302893 401.93950962 7.9269214 C405.31281025 7.9288404 408.68576818 7.92427915 412.05906105 7.90980911 C415.7213387 7.89487003 419.38315214 7.89847764 423.04544067 7.90666199 C424.10479968 7.89792346 425.16415868 7.88918494 426.25561947 7.88018161 C436.64018094 7.94285015 445.61270797 10.75284254 453.41105652 17.79476929 C462.29227648 27.25471536 462.29751204 38.34663617 462.22758484 50.57528687 C462.23219815 52.33396069 462.23855395 54.09263066 462.24649382 55.85129261 C462.26315112 60.66656912 462.25495713 65.48152744 462.24254894 70.2968049 C462.23348605 75.49661797 462.24747434 80.69637693 462.25846863 85.8961792 C462.27624517 96.07571211 462.27241769 106.25512697 462.26081806 116.43466449 C462.25178063 124.70856872 462.25056109 132.9824399 462.25491333 141.25634766 C462.25552626 142.43440942 462.25613919 143.61247118 462.2567707 144.82623178 C462.25804962 147.21952113 462.25934647 149.61281048 462.26066107 152.00609982 C462.27206433 174.44238065 462.25895711 196.87859608 462.2374596 219.31486619 C462.21958887 238.5617807 462.22269304 257.8085987 462.24113464 277.05551147 C462.2625458 299.41209216 462.27096572 321.76861554 462.25868559 344.12520504 C462.25741141 346.50963782 462.25615392 348.89407062 462.25491333 351.27850342 C462.25398768 353.03823438 462.25398768 353.03823438 462.25304332 354.83351547 C462.24959117 363.09646247 462.25541589 371.35937309 462.26483154 379.62231445 C462.2760556 389.69354755 462.27300282 399.76465596 462.25170857 409.8358748 C462.24120373 414.97332893 462.2370668 420.11057525 462.25030518 425.2480278 C462.26224645 429.9533061 462.25563781 434.65818442 462.23439497 439.36342657 C462.22993628 441.06315574 462.23217867 442.76291887 462.24189812 444.4626261 C462.30843852 457.06851251 460.99217595 466.79562272 452.00480652 476.28695679 C444.69750253 482.61995357 436.94890522 484.38607194 427.50054836 484.40723324 C426.42094904 484.41166037 426.42094904 484.41166037 425.31953964 484.41617694 C422.90117644 484.42485791 420.48286114 484.42644767 418.06448364 484.42805481 C416.31567937 484.43278648 414.5668762 484.43793748 412.81807429 484.44347245 C408.00687202 484.45737529 403.19567733 484.4649612 398.38446009 484.47144544 C394.25912102 484.47781815 390.13379435 484.48788797 386.00846302 484.4980061 C372.41779566 484.53132241 358.82712076 484.55284912 345.23642597 484.57120594 C341.69764067 484.57600147 338.15885567 484.58098472 334.6200707 484.58601117 C312.64384738 484.61698068 290.66762143 484.64366529 268.69138241 484.66042995 C263.60160251 484.66437944 258.51182265 484.66838243 253.42204285 484.67245483 C251.52448878 484.67396738 251.52448878 484.67396738 249.58860029 484.67551047 C229.09484292 484.69251818 208.60120629 484.7336293 188.10750788 484.78447782 C167.0664611 484.83625498 146.02547642 484.86537226 124.98436648 484.87262684 C113.17077465 484.8772887 101.3573806 484.8920363 89.54385185 484.93237114 C79.48315497 484.96667973 69.42269157 484.98060695 59.36193954 484.967947 C54.23022854 484.96212234 49.09901128 484.96597099 43.9673748 484.99611664 C39.26474687 485.02351627 34.56296263 485.02295242 29.86031563 485.00060619 C28.16374963 484.99738868 26.46712675 485.00421983 24.77065515 485.02240341 C12.79071485 485.14297304 3.05920597 483.33060945 -6.21784973 475.07992554 C-15.03403734 465.12885113 -14.99760492 454.31598866 -14.90853882 441.78063965 C-14.91358901 439.90616804 -14.92082148 438.03170127 -14.93003696 436.15724552 C-14.9489178 431.02667496 -14.93674901 425.89658285 -14.91931403 420.76602459 C-14.90592143 415.22548627 -14.92138366 409.68501709 -14.93313599 404.14448547 C-14.95150056 393.30031893 -14.94300903 382.45633274 -14.92504776 371.61217184 C-14.91101793 362.80144141 -14.90712979 353.99075991 -14.91049004 345.18001938 C-14.91096748 343.92571474 -14.91144492 342.6714101 -14.91193683 341.37909623 C-14.91296316 338.83102075 -14.91401852 336.28294528 -14.91510259 333.73486982 C-14.92392537 310.53292906 -14.90528536 287.33108113 -14.87457236 264.12916869 C-14.84669271 242.94703005 -14.84175817 221.76500621 -14.85676575 200.58285522 C-14.86058818 195.15515207 -14.86438296 189.7274489 -14.86793613 184.29974556 C-14.86859286 183.29742549 -14.86859286 183.29742549 -14.86926284 182.27485652 C-14.88049802 164.57070887 -14.87308475 146.86656847 -14.86005539 129.16242301 C-14.85821098 126.62559438 -14.85637625 124.08876575 -14.85455132 121.5519371 C-14.85363923 120.30374358 -14.85272714 119.05555005 -14.85178741 117.76953248 C-14.8461761 108.96421513 -14.84949453 100.15892678 -14.85609627 91.35361099 C-14.86381653 80.63081512 -14.85712339 69.90814276 -14.83192123 59.18537183 C-14.81939826 53.71234408 -14.8133137 48.23950893 -14.82446289 42.76647377 C-14.83446841 37.7604963 -14.82612466 32.75490378 -14.80288171 27.74897335 C-14.79770211 25.93429226 -14.79932056 24.11957695 -14.80827636 22.30491056 C-14.81941043 19.84501049 -14.80610571 17.38642607 -14.78650761 14.92660713 C-14.79558642 14.21611804 -14.80466524 13.50562894 -14.81401917 12.77360988 C-14.7396299 8.00938762 -13.61821488 5.63384246 -10.28034973 2.26742554 C-6.95805719 -0.05022211 -3.98694754 0.01190076 0 0 Z " fill="#909090" transform="translate(291.2803497314453,283.7325744628906)"/>
<path d="M0 0 C1.94118462 -0.01691895 1.94118462 -0.01691895 3.92158508 -0.03417969 C5.3589042 -0.02640214 6.79622113 -0.01820944 8.23353577 -0.00964355 C9.74471716 -0.01506272 11.25589326 -0.02218423 12.76705933 -0.03088379 C16.87458859 -0.04914636 20.98171676 -0.04203731 25.08925319 -0.02936745 C29.38488151 -0.01925301 33.68047509 -0.02862896 37.97610474 -0.03491211 C45.1915352 -0.04219386 52.40680201 -0.03258786 59.62220764 -0.0135498 C67.96622307 0.00821178 76.30984744 0.00117501 84.65385336 -0.02085543 C91.81403608 -0.03900429 98.97410104 -0.04157004 106.13429934 -0.03110075 C110.41237171 -0.0248619 114.69026026 -0.02404067 118.96832085 -0.0372467 C122.99118165 -0.04879692 127.01353823 -0.04079511 131.03634453 -0.01766968 C132.51337344 -0.01237773 133.99044474 -0.01390473 135.46745682 -0.02272034 C137.48243959 -0.03363848 139.49751502 -0.01752356 141.51245117 0 C143.20454916 0.00226215 143.20454916 0.00226215 144.93083096 0.00457001 C147.81971741 0.50793457 147.81971741 0.50793457 150.18259621 2.12886715 C152.34740206 5.27476683 152.32024741 7.27360945 152.32092285 11.08094788 C152.32922445 12.06907727 152.32922445 12.06907727 152.33769375 13.07716888 C152.35130006 15.28307233 152.33633277 17.48784422 152.32142639 19.69372559 C152.32520957 21.27563966 152.33070961 22.85755042 152.33779907 24.43945312 C152.35177007 28.73487591 152.34057304 33.02989889 152.32408786 37.3252995 C152.31024806 41.81757254 152.31669612 46.30982211 152.32022095 50.80210876 C152.32292364 58.345311 152.30944145 65.88835416 152.28627014 73.43151855 C152.25965037 82.15780999 152.25791612 90.8838356 152.26965851 99.61015373 C152.28042925 107.99938843 152.27425539 116.38852679 152.26010323 124.77775383 C152.25433827 128.35067962 152.25443007 131.92353502 152.25916862 135.49646187 C152.26393321 139.70147463 152.25385852 143.90619545 152.23221397 148.11115265 C152.22663916 149.65632836 152.22618716 151.20153208 152.23116684 152.74670982 C152.23710214 154.85210119 152.22464997 156.95659458 152.20739746 159.06190491 C152.20375262 160.83086797 152.20375262 160.83086797 152.20003414 162.63556767 C151.81971741 165.50793457 151.81971741 165.50793457 150.68734169 167.38742256 C147.93986639 169.03581571 145.74254946 168.88262406 142.55004883 168.88215637 C140.57928627 168.89267784 140.57928627 168.89267784 138.56871033 168.90341187 C137.1093277 168.89598391 135.6499466 168.88825275 134.19056702 168.88024902 C132.65644077 168.88267649 131.12231609 168.88639538 129.5881958 168.89131165 C125.41886642 168.90072968 121.24977141 168.89128806 117.08046031 168.87797952 C112.72251386 168.86667917 108.3645792 168.87077137 104.00662231 168.87272644 C96.68866639 168.87360977 89.37080304 168.86252009 82.0528717 168.84411621 C73.58394366 168.82294008 65.11515119 168.81944014 56.64620203 168.82567817 C48.50846622 168.83136604 40.3707783 168.8257335 32.23304939 168.81450462 C28.76537251 168.80985178 25.29772486 168.80898773 21.8300457 168.81109047 C17.74986631 168.81296943 13.66982558 168.80489992 9.58967781 168.78903008 C8.08923033 168.78477547 6.58876881 168.78394453 5.08831787 168.78672028 C3.04633964 168.78992563 1.00435327 168.77966576 -1.03759766 168.76863098 C-2.18225526 168.76657811 -3.32691286 168.76452524 -4.50625706 168.76241016 C-7.18028259 168.50793457 -7.18028259 168.50793457 -9.18028259 166.50793457 C-9.43475819 163.74299812 -9.43475819 163.74299812 -9.440979 160.14419556 C-9.44480455 159.48377349 -9.4486301 158.82335142 -9.45257157 158.14291656 C-9.46292877 155.91962002 -9.45890436 153.69658043 -9.4549408 151.4732666 C-9.45928583 149.88342041 -9.46446827 148.29357631 -9.47042847 146.70373535 C-9.48385351 142.37725343 -9.48439317 138.05085869 -9.48186517 133.72435999 C-9.48079764 130.11593286 -9.48567331 126.50752352 -9.49047059 122.89910018 C-9.50157829 114.38702501 -9.50199636 105.87499396 -9.49595642 97.36291504 C-9.48991694 88.57535444 -9.50222407 79.78795396 -9.52352649 71.00042069 C-9.54112952 63.46236559 -9.54714583 55.92436152 -9.54388875 48.38628662 C-9.54207338 43.88130143 -9.5447371 39.3764304 -9.55860329 34.87146378 C-9.57115565 30.63449537 -9.56926224 26.39777683 -9.5561924 22.16081238 C-9.55382124 20.60475964 -9.55658056 19.04868946 -9.56481552 17.49265671 C-9.57523983 15.37002614 -9.56721809 13.24824066 -9.55450439 11.12564087 C-9.55467214 9.93728197 -9.55483988 8.74892307 -9.5550127 7.5245533 C-8.75720855 1.10214186 -6.16369464 0.00824295 0 0 Z " fill="#FAFBFA" transform="translate(291.18028259277344,289.4920654296875)"/>
<path d="M0 0 C0 46.2 0 92.4 0 140 C-47.19 140 -94.38 140 -143 140 C-143 94.13 -143 48.26 -143 1 C-107.72141071 0.74922556 -107.72141071 0.74922556 -92.9765625 0.64453125 C-82.78190075 0.57214441 -72.5872391 0.49974259 -62.39257812 0.42724609 C-54.96899368 0.37445541 -47.54540889 0.32171418 -40.12182367 0.26903296 C-36.18924393 0.24112379 -32.25666437 0.21318945 -28.32408524 0.18519592 C-24.62566355 0.15886999 -20.92724141 0.13261 -17.22881889 0.10640144 C-15.21817364 0.09213576 -13.20752889 0.07779939 -11.19688416 0.0634613 C-10.00773911 0.05504715 -8.81859406 0.046633 -7.59341431 0.03796387 C-6.55547541 0.03058952 -5.51753651 0.02321518 -4.44814491 0.01561737 C-2.96545097 0.00615887 -1.48272411 0 0 0 Z " fill="#FCFCFC" transform="translate(441,463)"/>
<path d="M0 0 C21.305625 -0.0825 42.61125 -0.165 64.5625 -0.25 C71.28568604 -0.28641602 78.00887207 -0.32283203 84.93579102 -0.36035156 C93.15612793 -0.37841797 93.15612793 -0.37841797 97.00645447 -0.3817749 C99.69144832 -0.38791118 102.37568562 -0.40046343 105.06053162 -0.42230225 C109.1310731 -0.45497171 113.20105628 -0.45562366 117.27172852 -0.45410156 C118.46442887 -0.468494 119.65712923 -0.48288643 120.88597202 -0.497715 C127.45727458 -0.46483444 131.7661292 -0.13376627 137 4 C139.64613191 7.65371351 140.37346712 10.16610776 140.36076355 14.65046692 C140.36489604 15.77409291 140.36902853 16.89771891 140.37328625 18.05539417 C140.36249192 19.28339583 140.3516976 20.5113975 140.34057617 21.77661133 C140.34093778 23.0955347 140.34129938 24.41445807 140.34167194 25.77334881 C140.34234805 29.33471913 140.32498571 32.89578585 140.30384064 36.45708466 C140.28673082 39.80125588 140.28594992 43.14541424 140.28381348 46.48962402 C140.26808385 56.26395608 140.22620025 66.0382319 140.1875 75.8125 C140.125625 97.654375 140.06375 119.49625 140 142 C93.8 142 47.6 142 0 142 C0 95.14 0 48.28 0 0 Z " fill="#FEFEFE" transform="translate(591,314)"/>
<path d="M0 0 C47.19 0 94.38 0 143 0 C143 45.87 143 91.74 143 139 C121.34375 139.0825 99.6875 139.165 77.375 139.25 C67.11994385 139.30462402 67.11994385 139.30462402 56.65771484 139.36035156 C48.3059082 139.37841797 48.3059082 139.37841797 44.39541626 139.3817749 C41.66538466 139.38791575 38.93609409 139.40048191 36.20620728 139.42230225 C32.07011089 139.45492348 27.9345645 139.45562489 23.79833984 139.45410156 C22.58330465 139.468494 21.36826946 139.48288643 20.11641502 139.497715 C13.7772809 139.46643403 9.77341154 139.34800513 5 135 C1.27454703 130.77110744 -0.12572421 128.49014078 -0.12025452 122.90011597 C-0.12163201 121.82260511 -0.12300951 120.74509426 -0.12442875 119.63493156 C-0.12083064 118.44297739 -0.11723253 117.25102322 -0.11352539 116.02294922 C-0.11364593 114.75394838 -0.11376646 113.48494755 -0.11389065 112.17749214 C-0.11411683 108.73829367 -0.10831212 105.29912985 -0.10128021 101.85993958 C-0.09559417 98.63522434 -0.09531758 95.41051067 -0.09460449 92.18579102 C-0.08935276 82.74885607 -0.07539167 73.3119276 -0.0625 63.875 C-0.041875 42.79625 -0.02125 21.7175 0 0 Z " fill="#FBFBFB" transform="translate(298,608)"/>
<path d="M0 0 C45.87 0 91.74 0 139 0 C139 46.86 139 93.72 139 142 C93.13 142 47.26 142 0 142 C0 95.14 0 48.28 0 0 Z " fill="#FDFDFD" transform="translate(446,461)"/>
<path d="M0 0 C45.21 0 90.42 0 137 0 C137 46.86 137 93.72 137 142 C91.79 142 46.58 142 0 142 C0 95.14 0 48.28 0 0 Z " fill="#FDFDFD" transform="translate(448,314)"/>
<path d="M0 0 C46.2 0 92.4 0 140 0 C140 45.21 140 90.42 140 137 C93.8 137 47.6 137 0 137 C0 91.79 0 46.58 0 0 Z " fill="#FEFEFE" transform="translate(591,461)"/>
<path d="M0 0 C44.88 0 89.76 0 136 0 C136.4375 67.875 136.4375 67.875 136.56811523 89.33544922 C136.6113512 95.66359406 136.6113512 95.66359406 136.65589905 101.99172974 C136.67576179 104.81829851 136.69284155 107.64486966 136.70826721 110.47146606 C136.72800708 114.07211522 136.75242878 117.67270347 136.78030598 121.2732985 C136.79422247 123.2247344 136.80327517 125.1762031 136.81216335 127.12766838 C136.82193738 128.27235147 136.83171141 129.41703457 136.84178162 130.59640503 C136.84823417 131.59747221 136.85468672 132.59853939 136.8613348 133.62994194 C136.84481129 136.0181302 136.84481129 136.0181302 138 138 C92.46 138 46.92 138 0 138 C0 92.46 0 46.92 0 0 Z " fill="#FEFEFE" transform="translate(446,608)"/>
<path d="M0 0 C1.30127838 -0.00274933 2.60255676 -0.00549866 3.94326782 -0.0083313 C5.3833017 -0.00125341 6.82333465 0.0060162 8.2633667 0.01345825 C9.78117872 0.01402246 11.29899128 0.01370563 12.81680298 0.01257324 C16.93631723 0.01199908 21.05571517 0.02376363 25.17520237 0.03772116 C29.48068719 0.05021796 33.78617464 0.05139819 38.0916748 0.05377197 C46.244323 0.05998983 54.3969176 0.07640479 62.54954219 0.09647095 C71.83119206 0.11882043 81.11284448 0.12982099 90.39451456 0.13986182 C109.48722223 0.16077074 128.57988 0.19595267 147.67254639 0.24050903 C148.00254639 0.90050903 148.33254639 1.56050903 148.67254639 2.24050903 C146.36254639 2.24050903 144.05254639 2.24050903 141.67254639 2.24050903 C141.67254639 3.23050903 141.67254639 4.22050903 141.67254639 5.24050903 C140.54940977 5.24270887 140.54940977 5.24270887 139.40358353 5.24495316 C121.19283646 5.28198909 102.98228173 5.34096096 84.77168655 5.42441177 C75.96519918 5.46423771 67.15880163 5.49661209 58.35223389 5.51150513 C50.67729038 5.52450328 43.0025442 5.55142072 35.32771182 5.5951221 C31.26310666 5.61777849 27.19874526 5.63341723 23.13407135 5.63239288 C19.30901708 5.63164872 15.48450252 5.64950054 11.65958786 5.68167686 C10.25514308 5.69020251 8.85063795 5.69190773 7.44617844 5.68631172 C5.52952413 5.67969156 3.61283299 5.69991829 1.69628906 5.7215271 C0.62332203 5.72521427 -0.449645 5.72890144 -1.55512619 5.73270035 C-5.11474423 6.38471747 -6.26791124 7.27700992 -8.32745361 10.24050903 C-8.92618442 13.339568 -8.92618442 13.339568 -8.82865906 16.85821533 C-8.83419345 17.52175738 -8.83972785 18.18529943 -8.84542996 18.86894882 C-8.85903692 21.09100294 -8.84406864 23.31193386 -8.8291626 25.53396606 C-8.83294572 27.12735471 -8.83844571 28.72074007 -8.84553528 30.31411743 C-8.85950594 34.64046282 -8.84830998 38.96641125 -8.83182406 43.29273462 C-8.81798635 47.81617206 -8.824432 52.33958616 -8.82795715 56.86303711 C-8.83065974 64.45751352 -8.81717765 72.05183193 -8.79400635 79.64627075 C-8.76737714 88.43506559 -8.76565538 97.22359654 -8.77739471 106.01241791 C-8.78816001 114.45932091 -8.78199651 122.90612815 -8.76783943 131.35302353 C-8.76207068 134.95189544 -8.76216921 138.55069749 -8.76690483 142.14957047 C-8.77166448 146.38330666 -8.76161538 150.61675244 -8.73995018 154.85043335 C-8.73436895 156.40731705 -8.7339292 157.96422859 -8.73890305 159.52111435 C-8.74482523 161.63999234 -8.7324118 163.7579731 -8.71513367 165.87677002 C-8.71270377 167.06437487 -8.71027388 168.25197971 -8.70777035 169.47557259 C-8.51951356 170.84421613 -8.51951356 170.84421613 -8.32745361 172.24050903 C-4.476296 174.80794744 -1.2847016 174.54760746 3.18304443 174.55935669 C4.48580322 174.57442513 4.48580322 174.57442513 5.81488037 174.58979797 C8.68800184 174.62070947 11.56102979 174.63768722 14.43426514 174.65457153 C16.42538767 174.67327677 18.41650222 174.6928497 20.40760803 174.71325684 C25.65021059 174.76465206 30.89283888 174.80423822 36.13555908 174.84140015 C41.48454184 174.88139349 46.83341692 174.9325071 52.18231201 174.98269653 C62.67898124 175.07954332 73.17571117 175.16392008 83.67254639 175.24050903 C83.67254639 175.57050903 83.67254639 175.90050903 83.67254639 176.24050903 C62.88254639 176.57050903 42.09254639 176.90050903 20.67254639 177.24050903 C21.66254639 178.23050903 21.66254639 178.23050903 22.67254639 179.24050903 C17.39254639 179.24050903 12.11254639 179.24050903 6.67254639 179.24050903 C6.67254639 225.44050903 6.67254639 271.64050903 6.67254639 319.24050903 C19.87254639 319.24050903 33.07254639 319.24050903 46.67254639 319.24050903 C46.34254639 319.90050903 46.01254639 320.56050903 45.67254639 321.24050903 C45.01770264 321.23527222 44.36285889 321.2300354 43.68817139 321.22463989 C40.68297306 321.20368203 37.67779018 321.19078954 34.67254639 321.17800903 C33.64258545 321.16963013 32.61262451 321.16125122 31.55145264 321.15261841 C25.82229026 321.13437267 20.33770537 321.3757552 14.67254639 322.24050903 C14.67254639 322.90050903 14.67254639 323.56050903 14.67254639 324.24050903 C12.03254639 324.24050903 9.39254639 324.24050903 6.67254639 324.24050903 C6.70973048 340.8261635 6.76961665 357.41155699 6.85644913 373.99701881 C6.89624007 381.69814015 6.92863222 389.3991593 6.94354248 397.10037231 C6.95655879 403.81361864 6.98352266 410.52664011 7.02715945 417.2397598 C7.04977508 420.79358972 7.06545703 424.34714231 7.06443024 427.90105057 C7.06354487 431.87071757 7.09380178 435.83981846 7.12664795 439.80935669 C7.12161758 440.98467957 7.11658722 442.16000244 7.11140442 443.37094116 C7.21840556 451.71749479 8.50320057 455.07116322 14.42254639 460.99050903 C15.53629639 462.10425903 15.53629639 462.10425903 16.67254639 463.24050903 C16.67254639 463.90050903 16.67254639 464.56050903 16.67254639 465.24050903 C40.48683462 466.10365761 64.26915925 466.38396457 88.09780145 466.35657465 C92.93296811 466.3521663 97.76813388 466.35372376 102.603302 466.35447693 C110.93718924 466.35499573 119.27106853 466.3519172 127.60495377 466.34623909 C139.65364987 466.33803542 151.70234221 466.3354999 163.7510408 466.3342511 C183.30967634 466.33207434 202.86830766 466.32545198 222.42694092 466.31594849 C241.40155008 466.30673849 260.37615809 466.29967531 279.35076904 466.29544067 C280.52468669 466.29517795 281.69860434 466.29491523 282.90809526 466.29464454 C288.79858589 466.2933393 294.68907654 466.29207564 300.57956719 466.29083264 C349.27722984 466.28050296 397.9748879 466.2629226 446.67254639 466.24050903 C447.00254639 465.58050903 447.33254639 464.92050903 447.67254639 464.24050903 C399.16254639 463.91050903 350.65254639 463.58050903 300.67254639 463.24050903 C300.67254639 462.91050903 300.67254639 462.58050903 300.67254639 462.24050903 C351.49254639 461.91050903 402.31254639 461.58050903 454.67254639 461.24050903 C455.00254639 415.70050903 455.33254639 370.16050903 455.67254639 323.24050903 C456.00254639 323.24050903 456.33254639 323.24050903 456.67254639 323.24050903 C457.00254639 350.96050903 457.33254639 378.68050903 457.67254639 407.24050903 C460.40698512 404.5060703 459.92653144 403.0152513 459.93425941 399.18475151 C459.94172491 397.88494626 459.9491904 396.58514101 459.95688212 395.24594772 C459.95510504 393.78977872 459.9531441 392.33360994 459.95101929 390.87744141 C459.95601777 389.34128655 459.96189224 387.80513433 459.96857202 386.26898587 C459.98444027 382.03210577 459.98780643 377.79529184 459.98922062 373.55838561 C459.99290282 368.9953049 460.0080523 364.43226101 460.02183533 359.86920166 C460.04414924 351.95819354 460.05913762 344.04719844 460.06920242 336.13616562 C460.08376508 324.69803221 460.10929503 313.25994417 460.13753371 301.82183732 C460.1830457 283.26593129 460.21964224 264.71001874 460.25067139 246.15408325 C460.28083891 228.12477473 460.31518088 210.09548217 460.35516357 192.06619263 C460.35762512 190.95555572 460.36008667 189.84491881 460.36262281 188.70062624 C460.37499706 183.12909285 460.38745367 177.55755964 460.39995122 171.98602653 C460.50358497 125.73754293 460.59276642 79.48903952 460.67254639 33.24050903 C461.00254639 33.24050903 461.33254639 33.24050903 461.67254639 33.24050903 C461.76409096 87.34015552 461.83457956 141.43979418 461.8768077 195.53950288 C461.88181056 201.92567824 461.88698785 208.31185344 461.89227295 214.69802856 C461.89332219 215.96940735 461.89437143 217.24078614 461.89545247 218.55069156 C461.91286027 239.13984638 461.94440006 259.72895655 461.98115757 280.31808488 C462.01855648 301.4425822 462.04078003 322.56705612 462.04890037 343.69158518 C462.0543903 356.72777919 462.07173328 369.763847 462.10421225 382.80000217 C462.12534714 391.73795759 462.13174873 400.67584772 462.1265519 409.61382632 C462.12398855 414.7714804 462.1279332 419.92891387 462.14936829 425.08652878 C462.16885844 429.81068212 462.1698003 434.53446682 462.15614197 439.25863726 C462.15445432 440.96540621 462.15950757 442.67219831 462.17207912 444.37892179 C462.25970405 457.01207809 460.96628504 466.74630373 451.95770264 476.26004028 C444.65039865 482.59303707 436.90180133 484.35915544 427.45344448 484.38031673 C426.37384516 484.38474387 426.37384516 484.38474387 425.27243575 484.38926044 C422.85407256 484.3979414 420.43575725 484.39953117 418.01737976 484.40113831 C416.26857549 484.40586997 414.51977232 484.41102098 412.7709704 484.41655594 C407.95976814 484.43045878 403.14857344 484.43804469 398.33735621 484.44452894 C394.21201714 484.45090165 390.08669047 484.46097147 385.96135914 484.47108959 C372.37069178 484.50440591 358.78001688 484.52593262 345.18932208 484.54428944 C341.65053678 484.54908497 338.11175179 484.55406822 334.57296681 484.55909467 C312.5967435 484.59006417 290.62051755 484.61674879 268.64427853 484.63351345 C263.55449862 484.63746293 258.46471877 484.64146593 253.37493896 484.64553833 C251.4773849 484.64705087 251.4773849 484.64705087 249.5414964 484.64859397 C229.04773904 484.66560167 208.55410241 484.7067128 188.060404 484.75756132 C167.01935722 484.80933847 145.97837254 484.83845576 124.93726259 484.84571034 C113.12367076 484.8503722 101.31027671 484.8651198 89.49674797 484.90545464 C79.43605109 484.93976323 69.37558769 484.95369044 59.31483566 484.94103049 C54.18312465 484.93520584 49.0519074 484.93905448 43.92027092 484.96920013 C39.21764299 484.99659977 34.51585875 484.99603591 29.81321175 484.97368968 C28.11664575 484.97047218 26.42002287 484.97730333 24.72355127 484.99548691 C12.74361097 485.11605653 3.01210209 483.30369294 -6.26495361 475.05300903 C-15.08114122 465.10193463 -15.0447088 454.28907215 -14.9556427 441.75372314 C-14.96069289 439.87925154 -14.96792536 438.00478477 -14.97714084 436.13032901 C-14.99602168 430.99975846 -14.98385289 425.86966635 -14.96641791 420.73910809 C-14.95302531 415.19856977 -14.96848754 409.65810059 -14.98023987 404.11756897 C-14.99860444 393.27340242 -14.99011291 382.42941624 -14.97215164 371.58525534 C-14.95812181 362.77452491 -14.95423367 353.96384341 -14.95759392 345.15310287 C-14.95807136 343.89879824 -14.9585488 342.6444936 -14.95904071 341.35217973 C-14.96006704 338.80410425 -14.9611224 336.25602878 -14.96220648 333.70795332 C-14.97102925 310.50601255 -14.95238924 287.30416463 -14.92167624 264.10225219 C-14.89379659 242.92011355 -14.88886206 221.73808971 -14.90386963 200.55593872 C-14.90769206 195.12823556 -14.91148684 189.7005324 -14.91504002 184.27282906 C-14.91569674 183.27050898 -14.91569674 183.27050898 -14.91636673 182.24794002 C-14.92760191 164.54379237 -14.92018863 146.83965197 -14.90715927 129.13550651 C-14.90531486 126.59867788 -14.90348013 124.06184924 -14.9016552 121.5250206 C-14.90074311 120.27682707 -14.89983102 119.02863355 -14.89889129 117.74261598 C-14.89327998 108.93729862 -14.89659841 100.13201027 -14.90320015 91.32669449 C-14.91092041 80.60389861 -14.90422727 69.88122626 -14.87902511 59.15845533 C-14.86650214 53.68542758 -14.86041758 48.21259242 -14.87156677 42.73955727 C-14.88157229 37.73357979 -14.87322854 32.72798728 -14.84998559 27.72205685 C-14.84480599 25.90737575 -14.84642445 24.09266044 -14.85538024 22.27799405 C-14.86651432 19.81809399 -14.85320959 17.35950957 -14.83361149 14.89969063 C-14.84269031 14.18920153 -14.85176912 13.47871244 -14.86112306 12.74669337 C-14.78673268 7.98240029 -13.66508603 5.60715678 -10.32745361 2.24050903 C-6.99074047 -0.09392042 -4.00597595 -0.00652439 0 0 Z " fill="#1C1C1C" transform="translate(291.32745361328125,283.7594909667969)"/>
<path d="M0 0 C3.3 0.33 6.6 0.66 10 1 C10.00238835 2.40051637 10.00477671 3.80103273 10.00723743 5.24398899 C10.06459625 38.48880914 10.13732607 71.73355935 10.22898628 104.97830248 C10.24025446 109.07008872 10.25139291 113.1618753 10.26245117 117.25366211 C10.26465486 118.06826377 10.26685854 118.88286543 10.269129 119.72215199 C10.30450216 132.91236033 10.32936619 146.10256862 10.35034702 159.29280681 C10.37210892 172.8270371 10.40516305 186.36120584 10.44870156 199.89538378 C10.47521157 208.24681478 10.49291173 216.59816909 10.49934604 224.94964009 C10.50460191 230.67642393 10.52082558 236.40311125 10.54566566 242.12984336 C10.55967393 245.43397782 10.5672284 248.7379053 10.56500816 252.0420742 C10.56335998 255.62627978 10.58001696 259.20995035 10.60127258 262.79408264 C10.59642501 263.83592164 10.59157743 264.87776063 10.58658296 265.9511705 C10.6437552 271.78477794 11.32636403 275.80579802 14 281 C14.495 282.485 14.495 282.485 15 284 C16.78228936 285.14209817 16.78228936 285.14209817 19 286 C19.71859985 286.34393811 20.43719969 286.68787621 21.17757529 287.04223669 C24.70885616 288.24054368 27.67786881 288.25527114 31.40879536 288.26171303 C32.14900713 288.26570909 32.88921891 288.26970515 33.65186134 288.27382231 C36.13982656 288.28481797 38.62757016 288.28159229 41.11555481 288.2784729 C42.91416081 288.28347455 44.71276455 288.28934995 46.51136512 288.29602563 C51.45976445 288.31185552 56.40810705 288.31525796 61.35652864 288.31667423 C66.6905221 288.32036306 72.02448425 288.33551594 77.35845947 288.34928894 C86.60192857 288.37158186 95.84538655 288.38658292 105.08887672 288.39665604 C118.45347128 288.41123064 131.81802715 288.43676403 145.18259903 288.46498732 C166.86480513 288.51047749 188.5470168 288.5470831 210.22924805 288.578125 C231.29371111 288.60830143 252.35816056 288.64264753 273.42260742 288.68261719 C274.72063688 288.68507874 276.01866634 288.68754028 277.35603002 288.69007643 C283.86774798 288.70245085 290.37946578 288.71490742 296.8911835 288.72740483 C350.92743666 288.83100594 404.96370681 288.9201982 459 289 C454.5394387 294.69343708 451.1934967 297.35099336 444 299 C438.2203079 299.55445927 432.48022448 299.54108177 426.67868042 299.50793457 C424.91858121 299.51254786 423.15848586 299.51890365 421.39839852 299.52684355 C416.57926087 299.54350082 411.76044115 299.53530691 406.94130254 299.52289867 C401.73743772 299.5138359 396.53362697 299.52782392 391.32977295 299.53881836 C381.14289005 299.55659428 370.95612512 299.55276791 360.76923762 299.5411678 C352.49054885 299.53213111 344.21189312 299.5309105 335.93320084 299.53526306 C334.16524203 299.53618246 334.16524203 299.53618246 332.36156688 299.53712043 C329.96714606 299.53839934 327.57272525 299.53969619 325.17830445 299.5410108 C302.73254637 299.55241363 280.28685367 299.53930701 257.84110631 299.51780933 C238.58104987 299.49993399 219.32108986 299.50304666 200.06103516 299.52148438 C177.69202179 299.54288829 155.32306568 299.55131991 132.95404351 299.53903532 C130.56908489 299.53776113 128.18412627 299.53650364 125.79916763 299.53526306 C124.03901453 299.53433741 124.03901453 299.53433741 122.24330278 299.53339306 C113.97340487 299.52993907 105.70354327 299.53576946 97.43365097 299.54518127 C87.357237 299.55639709 77.28094767 299.55336973 67.20454799 299.5320583 C62.06329112 299.52154306 56.92224213 299.51743431 51.78098679 299.53065491 C47.07457929 299.54257436 42.36857234 299.53602352 37.66220118 299.5147447 C35.95981584 299.51027682 34.25739665 299.51254908 32.55503307 299.52224785 C22.88339839 299.57312257 15.84632994 299.34594438 7.79296875 293.359375 C7.26316406 292.82828125 6.73335938 292.2971875 6.1875 291.75 C5.64480469 291.22921875 5.10210937 290.7084375 4.54296875 290.171875 C-0.29742889 283.35855579 -0.42677364 276.46178613 -0.36076355 268.40808105 C-0.36332682 267.257851 -0.3658901 266.10762094 -0.36853105 264.92253542 C-0.37346279 261.07777053 -0.35698544 257.23340044 -0.34057617 253.38867188 C-0.33805773 250.62890373 -0.34007328 247.86914323 -0.34190369 245.109375 C-0.34347395 239.17264234 -0.33409065 233.23600886 -0.31719017 227.29930115 C-0.29277115 218.71591836 -0.28499194 210.13258336 -0.2812262 201.5491696 C-0.27466626 187.62194528 -0.25471753 173.69477378 -0.22631836 159.76757812 C-0.19876593 146.24153914 -0.17753815 132.71551452 -0.16479492 119.18945312 C-0.16400675 118.35519615 -0.16321858 117.52093918 -0.16240653 116.66140169 C-0.15849131 112.4760269 -0.15470021 108.29065202 -0.15097082 104.10527706 C-0.11988916 69.40348003 -0.06684226 34.70174576 0 0 Z " fill="#F8F8F8" transform="translate(283,463)"/>
<path d="M0 0 C2 2 2 2 2.23046875 4.73046875 C2.12118699 13.52268341 1.6875216 22.23409959 1 31 C2.98 31 4.96 31 7 31 C6.9175 29.948125 6.835 28.89625 6.75 27.8125 C6.76677723 18.36691758 10.64444268 9.58703954 16 2 C17.32 2.33 18.64 2.66 20 3 C19.59138702 6.88182328 18.60222422 10.07619325 17.0625 13.625 C14.69485258 19.27291531 13.78946799 24.95433721 13 31 C15.31 31 17.62 31 20 31 C20.061875 29.9275 20.12375 28.855 20.1875 27.75 C20.96458597 21.37332395 23.40634906 13.59365094 28 9 C30.125 9.375 30.125 9.375 32 10 C31.28866446 13.96421371 30.21020149 17.72277984 29 21.5625 C27.91091071 25.02596412 26.82985381 28.46447701 26 32 C28.31 32 30.62 32 33 32 C33.0825 31.01 33.165 30.02 33.25 29 C33.86308007 24.52543052 35.81968045 20.90429315 38 17 C39.98 17.495 39.98 17.495 42 18 C41.40380045 22.86896303 40.43023178 27.32790951 39 32 C41.40877257 31.88658466 41.40877257 31.88658466 44 31 C45.84434349 28.53884453 45.84434349 28.53884453 47 26 C48.65 26.33 50.3 26.66 52 27 C51.34 28.98 50.68 30.96 50 33 C53.68499218 32.74981666 55.46413681 32.58043208 58.01953125 29.8125 C58.61121094 28.884375 59.20289063 27.95625 59.8125 27 C65.99971685 17.95353899 73.73601203 9.44772812 84 5 C86.828125 5.3203125 86.828125 5.3203125 89 6 C90.07346801 9.90344167 89.9719528 11.95711571 88.26953125 15.6171875 C87.87830078 16.47183594 87.48707031 17.32648437 87.08398438 18.20703125 C86.45459961 19.52767578 86.45459961 19.52767578 85.8125 20.875 C85.41224609 21.74769531 85.01199219 22.62039063 84.59960938 23.51953125 C82.78727037 27.42619394 80.9299337 31.17367624 78.63671875 34.8203125 C76.75785985 38.47041071 76.89380775 39.19989587 78 43 C79.09115983 45.3928896 79.09115983 45.3928896 80.46875 47.765625 C80.95730469 48.65636719 81.44585938 49.54710937 81.94921875 50.46484375 C82.97643847 52.30969932 84.01022013 54.15091766 85.05078125 55.98828125 C88.22627557 61.81141727 89.83940049 66.33512027 90 73 C89.67 73.33 89.34 73.66 89 74 C80.17614255 74 72.89567974 68.05871249 66.75 62.1875 C63.19040824 58.47504234 60.42870388 54.37667752 57.73828125 50.00390625 C55.60096543 47.53998936 54.18755136 47.29866324 51 47 C51.495 49.97 51.495 49.97 52 53 C50.35 53.33 48.7 53.66 47 54 C46.01 51.03 46.01 51.03 45 48 C43.02 48 41.04 48 39 48 C39.30035156 48.66386719 39.60070312 49.32773437 39.91015625 50.01171875 C40.29042969 50.89472656 40.67070313 51.77773438 41.0625 52.6875 C41.44535156 53.55761719 41.82820312 54.42773438 42.22265625 55.32421875 C43.0935848 58.32213864 42.85006226 60.03280153 42 63 C40.13671875 62.76953125 40.13671875 62.76953125 38 62 C36.76953125 60.07421875 36.76953125 60.07421875 35.8125 57.6875 C35.48894531 56.90761719 35.16539062 56.12773438 34.83203125 55.32421875 C34.08158116 53.22789105 33.49155473 51.16979208 33 49 C30.69 49 28.38 49 26 49 C27.73094208 54.54688258 29.71580945 59.76079488 32.328125 64.95703125 C33.1241994 67.37765281 32.83119315 68.62896825 32 71 C29.48855404 70.62595486 28.29333829 70.33223398 26.5859375 68.3984375 C23.0620018 62.51005461 20.57382207 57.03193585 21 50 C18.03 50 15.06 50 12 50 C14.96298687 60.65728298 14.96298687 60.65728298 19.375 70.75 C21 74 21 74 20.6015625 76.203125 C20.40304687 76.79609375 20.20453125 77.3890625 20 78 C17.6640625 77.76953125 17.6640625 77.76953125 15 77 C9.42676875 69.96711294 6.69369476 58.85060929 7 50 C5.02 50 3.04 50 1 50 C1.16113281 51.28132812 1.32226562 52.56265625 1.48828125 53.8828125 C2.04235154 58.89003884 2.18352964 63.84058078 2.1875 68.875 C2.19974609 69.71546875 2.21199219 70.5559375 2.22460938 71.421875 C2.22654297 72.22882813 2.22847656 73.03578125 2.23046875 73.8671875 C2.23457764 74.59019043 2.23868652 75.31319336 2.24291992 76.05810547 C2 78 2 78 0 81 C-5.85502323 81.75736619 -9.72593174 80.16383347 -14.75 77.5 C-15.44738281 77.1390625 -16.14476562 76.778125 -16.86328125 76.40625 C-30.89624191 68.96335374 -44.60546188 58.01326341 -51 43 C-51.1422334 35.88833003 -47.28083802 31.39757838 -43 26 C-42.34902344 25.17113281 -41.69804688 24.34226562 -41.02734375 23.48828125 C-32.04963973 12.7989402 -14.80314803 -2.19305897 0 0 Z " fill="#201F1F" transform="translate(647,635)"/>
<path d="M0 0 C7.49551316 3.72476421 10.75428239 8.31059186 14.0625 15.6875 C18.09251494 24.0190182 22.55377169 27.34772073 30.9375 31.3125 C36.22897453 35.70329802 41.38755051 42.39901684 42.17578125 49.44140625 C42.41740519 57.36412815 40.30262841 63.37061932 36.25 70.125 C29.61182837 76.40435154 23.56622971 77.9548398 14.51977539 77.84887695 C8.43383485 77.59022614 3.05547457 76.06496572 -2.7421875 74.22265625 C-12.26964553 71.61101187 -20.25594913 73.44065479 -29.31616211 76.51318359 C-36.78121752 79.00062955 -42.54719385 79.57771204 -49.875 76.5625 C-56.61268904 73.152211 -60.65017338 69.03215858 -64.0625 62.3125 C-66.37790286 55.00223436 -65.55333439 47.6131179 -62.44140625 40.6953125 C-58.80644728 34.41393864 -54.21396483 30.7265268 -47.625 27.875 C-41.28887101 24.72884466 -39.08840283 19.80097448 -36.31860352 13.58032227 C-29.87781016 -0.55703657 -14.55671426 -6.09005392 0 0 Z " fill="#82B2AE" transform="translate(374.0625,363.6875)"/>
<path d="M0 0 C35.38973194 -0.09127621 70.77943995 -0.16205202 106.16926545 -0.20426132 C110.34860229 -0.20926407 114.5279389 -0.21444136 118.70727539 -0.21972656 C119.95530648 -0.22130043 119.95530648 -0.22130043 121.22855032 -0.22290608 C134.69551442 -0.24030508 148.16241012 -0.27183998 161.62933367 -0.30861118 C175.45055453 -0.34603467 189.27173961 -0.36823883 203.09300905 -0.37635398 C211.61955025 -0.38183884 220.14589812 -0.39915404 228.6723798 -0.43166587 C234.52156107 -0.45283115 240.37064258 -0.4591955 246.21985935 -0.45400551 C249.59325084 -0.45144678 252.9660331 -0.45752803 256.33941078 -0.4768219 C260.00180594 -0.49674132 263.6633759 -0.4919309 267.32579041 -0.48101807 C268.38514941 -0.49266943 269.44450841 -0.5043208 270.5359692 -0.51632524 C278.73474414 -0.45035483 284.43273126 1.66755505 291.25 6.125 C298.25215643 13.44543627 299.7355421 21.06121321 299.60127258 30.90835571 C299.60554471 32.06846173 299.60981683 33.22856774 299.61421841 34.42382848 C299.62099067 37.61686407 299.60551905 40.80886574 299.58032811 44.00177932 C299.55861775 47.45493991 299.56605095 50.90805739 299.56983948 54.36126709 C299.57245384 60.33514275 299.55684436 66.30874413 299.52865028 72.28255081 C299.4879139 80.91948958 299.47498274 89.5562965 299.46871033 98.19332092 C299.45778299 112.20822 299.42455131 126.22297309 299.37719727 140.23779297 C299.33126117 153.84716057 299.29588912 167.45648843 299.2746582 181.06591797 C299.27334459 181.90562349 299.27203097 182.745329 299.27067754 183.61048014 C299.26415208 187.82328164 299.25783361 192.03608343 299.25161803 196.24888539 C299.19983366 231.16602865 299.11143784 266.08299844 299 301 C295.7 300.67 292.4 300.34 289 300 C288.99945523 298.59101975 288.99891047 297.18203951 288.99834919 295.73036289 C288.98430074 262.27332815 288.94452983 228.81642479 288.87314438 195.35946364 C288.86437778 191.24021247 288.85582794 187.12096088 288.84741211 183.00170898 C288.84573305 182.18165072 288.84405398 181.36159245 288.84232404 180.51668393 C288.81566457 167.24374555 288.80655972 153.97085037 288.80395857 140.69788796 C288.80089758 127.07548466 288.77893407 113.4532061 288.73947543 99.83085912 C288.7157274 91.42716668 288.70666955 83.02372333 288.71648689 74.62000196 C288.72180848 68.85484578 288.70874561 63.08991253 288.6813371 57.32481981 C288.66606947 53.99996337 288.66153007 50.67602105 288.67340279 47.35108757 C288.68501724 43.74100604 288.66591431 40.13232676 288.63923645 36.52235413 C288.64990971 35.47855892 288.66058297 34.43476371 288.67157966 33.35933834 C288.57803078 26.56624137 287.49458065 21.2732667 283 16 C276.79334565 10.71399789 270.38488134 10.27999576 262.51560974 10.36076355 C261.38902657 10.35240787 260.2624434 10.3440522 259.10172135 10.33544332 C255.34280497 10.31357076 251.58487093 10.32710405 247.82592773 10.34057617 C245.12509424 10.33212079 242.42433512 10.32169438 239.723526 10.30880737 C233.91720936 10.28501823 228.11110493 10.27934575 222.30474663 10.28615379 C213.90988912 10.29597043 205.51526621 10.27819187 197.12044669 10.25378648 C183.49883099 10.21493029 169.87728257 10.19823592 156.25561523 10.19555664 C143.02739004 10.19290711 129.79924343 10.17977165 116.57104492 10.15258789 C115.75497264 10.15091451 114.93890037 10.14924113 114.09809863 10.14751705 C110.00389844 10.13905727 105.90969872 10.13039191 101.81549919 10.12162435 C67.87700731 10.04921223 33.93856606 10.01317016 0 10 C0 6.7 0 3.4 0 0 Z " fill="#FAFAFA" transform="translate(448,298)"/>
<path d="M0 0 C0 22.77 0 45.54 0 69 C-15.07083438 65.98583312 -27.60104641 54.64940727 -37 43 C-37.46664062 42.443125 -37.93328125 41.88625 -38.4140625 41.3125 C-40.35919133 38.77192357 -41.02638169 37.37710302 -40.80078125 34.15234375 C-38.00046553 23.12866187 -26.68434458 13.41140613 -17.32421875 7.66796875 C-13.93492033 5.67855991 -10.48730761 3.81251147 -7 2 C-6.26652344 1.5978125 -5.53304687 1.195625 -4.77734375 0.78125 C-3 0 -3 0 0 0 Z " fill="#FAFAFA" transform="translate(643,641)"/>
<path d="M0 0 C7.49551316 3.72476421 10.75428239 8.31059186 14.0625 15.6875 C18.09251494 24.0190182 22.55377169 27.34772073 30.9375 31.3125 C36.22897453 35.70329802 41.38755051 42.39901684 42.17578125 49.44140625 C42.41740519 57.36412815 40.30262841 63.37061932 36.25 70.125 C29.61182837 76.40435154 23.56622971 77.9548398 14.51977539 77.84887695 C8.43383485 77.59022614 3.05547457 76.06496572 -2.7421875 74.22265625 C-12.26964553 71.61101187 -20.25594913 73.44065479 -29.31616211 76.51318359 C-36.78121752 79.00062955 -42.54719385 79.57771204 -49.875 76.5625 C-56.61268904 73.152211 -60.65017338 69.03215858 -64.0625 62.3125 C-66.37790286 55.00223436 -65.55333439 47.6131179 -62.44140625 40.6953125 C-58.80644728 34.41393864 -54.21396483 30.7265268 -47.625 27.875 C-41.28887101 24.72884466 -39.08840283 19.80097448 -36.31860352 13.58032227 C-29.87781016 -0.55703657 -14.55671426 -6.09005392 0 0 Z M-27.78125 10.296875 C-30.48047244 14.18045014 -32.45932874 18.18811622 -34.375 22.5 C-37.05219147 28.04315926 -40.77941852 30.40680519 -46.0625 33.3125 C-52.55368759 36.90093821 -56.44677139 39.81682444 -58.63671875 47.265625 C-60.04787953 54.0495539 -59.36992862 59.37190689 -55.66796875 65.29296875 C-52.4812943 69.30151058 -49.00469619 71.64079106 -43.9921875 72.78515625 C-37.94810518 73.1958169 -32.38387346 71.41156584 -26.625 69.8125 C-14.60825723 66.50662425 -6.50406351 67.00694817 5.37280273 70.51293945 C12.77341019 72.66079668 19.05121563 73.85812662 26.3125 70.625 C30.67392565 68.11893889 33.06599879 65.1862276 35.1875 60.625 C36.60470209 54.36569076 37.16491813 48.70234466 33.8125 43 C29.96592278 37.65336482 25.45078374 34.57913481 19.8125 31.375 C14.46843599 28.20844267 12.2159221 25.10074999 9.62109375 19.44140625 C6.52541368 12.83782762 4.40867225 8.84223032 -2.0625 5.3125 C-2.825625 4.879375 -3.58875 4.44625 -4.375 4 C-13.31165565 1.71387879 -21.55964798 3.11375267 -27.78125 10.296875 Z " fill="#1D2120" transform="translate(374.0625,363.6875)"/>
<path d="M0 0 C0.33 0 0.66 0 1 0 C1.09154457 54.09964649 1.16203317 108.19928515 1.20426132 162.29899385 C1.20926418 168.6851692 1.21444146 175.0713444 1.21972656 181.45751953 C1.2207758 182.72889832 1.22182505 184.00027711 1.22290608 185.31018253 C1.24031389 205.89933735 1.27185368 226.48844752 1.30861118 247.07757585 C1.3460101 268.20207316 1.36823364 289.32654709 1.37635398 310.45107615 C1.38184391 323.48727016 1.3991869 336.52333797 1.43166587 349.55949314 C1.45280076 358.49744856 1.45920234 367.43533869 1.45400551 376.37331729 C1.45144216 381.53097137 1.45538681 386.68840483 1.4768219 391.84601974 C1.49631205 396.57017308 1.49725391 401.29395779 1.48359558 406.01812823 C1.48190793 407.72489717 1.48696118 409.43168928 1.49953273 411.13841276 C1.5891916 424.064808 0.21708707 433.36395443 -9 443 C-10.98 441.515 -10.98 441.515 -13 440 C-12.34 438.68 -11.68 437.36 -11 436 C-225.83 435.505 -225.83 435.505 -445 435 C-445 434.67 -445 434.34 -445 434 C-231.655 433.505 -231.655 433.505 -14 433 C-13.67 432.34 -13.34 431.68 -13 431 C-61.51 430.67 -110.02 430.34 -160 430 C-160 429.67 -160 429.34 -160 429 C-109.18 428.67 -58.36 428.34 -6 428 C-5.67 382.46 -5.34 336.92 -5 290 C-4.67 290 -4.34 290 -4 290 C-3.67 317.72 -3.34 345.44 -3 374 C-0.26556127 371.26556127 -0.74601495 369.77474226 -0.73828697 365.94424248 C-0.73082148 364.64443723 -0.72335599 363.34463197 -0.71566427 362.00543869 C-0.71744135 360.54926969 -0.71940229 359.0931009 -0.7215271 357.63693237 C-0.71652861 356.10077752 -0.71065415 354.5646253 -0.70397437 353.02847683 C-0.68810611 348.79159673 -0.68473996 344.55478281 -0.68332577 340.31787658 C-0.67964357 335.75479587 -0.66449409 331.19175198 -0.65071106 326.62869263 C-0.62839715 318.7176845 -0.61340876 310.80668941 -0.60334396 302.89565659 C-0.58878131 291.45752318 -0.56325135 280.01943514 -0.53501268 268.58132829 C-0.48950069 250.02542225 -0.45290414 231.4695097 -0.421875 212.91357422 C-0.39170748 194.8842657 -0.35736551 176.85497314 -0.31738281 158.82568359 C-0.31492126 157.71504669 -0.31245972 156.60440978 -0.30992357 155.46011721 C-0.29754932 149.88858381 -0.28509272 144.31705061 -0.27259517 138.74551749 C-0.16896141 92.49703389 -0.07977997 46.24853048 0 0 Z " fill="#3C3C3C" transform="translate(752,317)"/>
<path d="M0 0 C1.5625 1.8125 1.5625 1.8125 3 4 C1.801563 7.59531099 1.08321219 7.90072263 -2.16399956 9.64992046 C-8.79340864 12.77477714 -15.17891536 12.68296794 -22.37600708 12.60127258 C-23.81594817 12.6034563 -25.2558873 12.60784034 -26.69581592 12.61421841 C-30.62982663 12.62534265 -34.56315038 12.60547712 -38.49707365 12.58032811 C-42.74778854 12.55866054 -46.9984672 12.56604797 -51.2492218 12.56983948 C-58.60633589 12.5724565 -65.96322763 12.55681876 -73.3202858 12.52865028 C-83.95721257 12.48795054 -94.59403223 12.47498645 -105.23102842 12.46871033 C-122.49034286 12.45777729 -139.74953889 12.42453001 -157.00878906 12.37719727 C-173.77082732 12.33127601 -190.53283338 12.29589666 -207.29492188 12.2746582 C-208.32878211 12.27334459 -209.36264234 12.27203097 -210.42783166 12.27067754 C-215.61459784 12.26415218 -220.80136425 12.25783368 -225.98813081 12.25161803 C-268.9921692 12.19981589 -311.99607848 12.11177761 -355 12 C-355 11.67 -355 11.34 -355 11 C-345.76 10.67 -336.52 10.34 -327 10 C-326.67 9.34 -326.34 8.68 -326 8 C-325.34437411 7.99978263 -324.68874822 7.99956526 -324.01325488 7.99934131 C-285.13275236 7.98581771 -246.25235367 7.94629865 -207.37191562 7.87314438 C-202.70074357 7.8643779 -198.02957114 7.85582805 -193.35839844 7.84741211 C-192.42847435 7.84573305 -191.49855027 7.84405398 -190.54044667 7.84232404 C-175.49447423 7.81567342 -160.44853988 7.80656035 -145.40254626 7.80395857 C-129.95742563 7.80089627 -114.51241493 7.77891754 -99.06734395 7.73947543 C-89.54123793 7.71574188 -80.01535154 7.70666308 -70.48922005 7.71648689 C-63.95174319 7.72181346 -57.41446265 7.7087219 -50.87704167 7.6813371 C-47.10841684 7.66608857 -43.34023157 7.65877859 -39.57159424 7.67340279 C-35.47660232 7.68907997 -31.38271594 7.66587772 -27.28778076 7.63923645 C-26.10875899 7.64990971 -24.92973722 7.66058297 -23.71498752 7.67157966 C-15.3768659 7.57069572 -6.15458492 6.15458492 0 0 Z " fill="#191817" transform="translate(739,755)"/>
<path d="M0 0 C2.98151005 0.43845736 5.06690545 1.03736614 7.71968424 2.5189212 C11.53627418 4.24213045 14.18305769 4.37859282 18.36005211 4.38476086 C19.08284562 4.38991076 19.80563913 4.39506067 20.55033547 4.40036663 C22.97313332 4.41398618 25.39538934 4.40630042 27.81820679 4.39872742 C29.57230489 4.40416652 31.32639933 4.41091794 33.08048785 4.41886932 C37.90124169 4.43692035 42.72184169 4.4363344 47.54262137 4.43273985 C52.74095391 4.4321168 57.93923446 4.44872857 63.13754272 4.46325684 C72.14418292 4.48606524 81.15078438 4.49793182 90.15745163 4.50238609 C103.17960251 4.50884203 116.20168331 4.53176963 129.22380598 4.55872939 C150.35085429 4.60202095 171.47789966 4.63197418 192.60498047 4.65356445 C213.12908375 4.67456704 233.65316291 4.70183585 254.17724609 4.73754883 C255.44215588 4.73974765 256.70706566 4.74194648 258.01030605 4.74421193 C264.35592863 4.75528141 270.701551 4.76647425 277.04717326 4.77772844 C329.69809417 4.87094709 382.34902877 4.94252951 435 5 C435 5.33 435 5.66 435 6 C332.04 6 229.08 6 123 6 C122.67 6.99 122.34 7.98 122 9 C225.62 9.33 329.24 9.66 436 10 C436 10.33 436 10.66 436 11 C382.04477966 11.11444342 328.08957159 11.20254792 274.13425375 11.25532665 C267.76438837 11.26158018 261.39452323 11.26805179 255.0246582 11.2746582 C253.75653234 11.27596976 252.48840648 11.27728131 251.18185256 11.2786326 C230.64832532 11.30038935 210.11486807 11.33981241 189.58138236 11.38576398 C168.5122524 11.43252103 147.4431591 11.46029383 126.37397939 11.47044247 C113.37307294 11.47730316 100.37236432 11.49897237 87.37151877 11.53958233 C78.45644182 11.56601135 69.54146716 11.57400059 60.62635388 11.56750689 C55.48270363 11.56430429 50.3393991 11.56921492 45.19581032 11.59602737 C40.48325774 11.62041323 35.77128238 11.62155293 31.05870286 11.60449447 C29.35729546 11.60238713 27.65585158 11.6086845 25.9545156 11.62441591 C7.47330651 11.78531373 7.47330651 11.78531373 0 6 C-0.84196311 3.95547372 -0.84196311 3.95547372 -1 2 C-0.67 1.34 -0.34 0.68 0 0 Z " fill="#3A3837" transform="translate(290,757)"/>
<path d="M0 0 C6.35911265 2.9925236 10.29281816 8.58563632 13.375 14.75 C15.025371 23.3319292 14.61469137 30.17794122 10.484375 37.94140625 C8.11864669 41.22229789 5.81776455 42.72741182 2 44 C-4.12964063 44.50242956 -7.13200251 44.11075344 -12 40 C-17.85917203 34.14082797 -20.0689155 27.8113601 -20.5 19.5625 C-20.27296875 12.21494308 -17.54466424 6.42899768 -12.25 1.375 C-7.98860752 -0.42789682 -4.55698496 -0.78823524 0 0 Z " fill="#212523" transform="translate(341,316)"/>
<path d="M0 0 C4.58684931 1.92007645 7.07715933 5.1028791 10 9 C12.49672926 16.49018779 12.24959823 26.52729477 8.875 33.6875 C5.93109777 38.65533501 2.58475704 42.13841432 -3 44 C-7.10590199 44.39982566 -10.82751482 44.39971086 -14.75 43.0625 C-19.23192067 38.95407272 -21.63217746 34.72061842 -22.453125 28.6484375 C-22.71149505 20.17759083 -21.97994336 12.29456339 -16.0234375 5.8671875 C-10.76914893 1.14788104 -7.23850446 -0.75459313 0 0 Z " fill="#1C1F1F" transform="translate(392,316)"/>
<path d="M0 0 C1.1975592 -0.00137466 2.39511841 -0.00274933 3.62896729 -0.00416565 C4.96292139 -0.00062629 6.29687525 0.00300852 7.63082886 0.00672913 C9.03012083 0.00701108 10.42941295 0.0068531 11.82870483 0.00628662 C15.63426304 0.00599897 19.43978992 0.01189046 23.24534082 0.01886058 C27.21985371 0.02509951 31.19436725 0.02569834 35.16888428 0.02688599 C42.69825927 0.0299977 50.22761979 0.03820895 57.75698841 0.04823548 C66.32760733 0.05940155 74.89822694 0.06490831 83.46885133 0.06993091 C101.10211637 0.08039169 118.73536794 0.09798806 136.36862183 0.12025452 C136.69862183 0.78025452 137.02862183 1.44025452 137.36862183 2.12025452 C140.39796673 2.7779788 140.39796673 2.7779788 143.36862183 3.12025452 C143.36862183 3.45025452 143.36862183 3.78025452 143.36862183 4.12025452 C136.93362183 4.61525452 136.93362183 4.61525452 130.36862183 5.12025452 C130.3649762 6.79235489 130.36133057 8.46445526 130.35757446 10.18722534 C130.32069003 25.91797713 130.26322792 41.64851161 130.18471909 57.37910938 C130.14488416 65.46706291 130.1125144 73.55491851 130.09762573 81.64295959 C130.08463218 88.69127613 130.05772672 95.73937761 130.01400876 102.78757304 C129.99134181 106.52071587 129.97571425 110.25359293 129.97673798 113.98681068 C129.97761956 118.15114538 129.94744642 122.31469254 129.91452026 126.47889709 C129.92206581 128.3422168 129.92206581 128.3422168 129.92976379 130.24317932 C129.91585098 131.37479996 129.90193817 132.50642059 129.88760376 133.67233276 C129.882073 135.15042781 129.882073 135.15042781 129.87643051 136.65838337 C129.36862183 139.12025452 129.36862183 139.12025452 125.36862183 142.12025452 C125.36862183 96.58025452 125.36862183 51.04025452 125.36862183 4.12025452 C111.83862183 4.12025452 98.30862183 4.12025452 84.36862183 4.12025452 C76.3249833 4.06388893 68.28274087 3.99942951 60.23971558 3.90150452 C58.23565391 3.87888324 56.2315899 3.85646883 54.2275238 3.83424377 C49.12021441 3.77708131 44.0129404 3.71724015 38.90567017 3.6566925 C33.62706436 3.59463773 28.34842772 3.53532085 23.0697937 3.47572327 C12.83603917 3.3598023 2.60232014 3.24103075 -7.63137817 3.12025452 C-7.63137817 2.46025452 -7.63137817 1.80025452 -7.63137817 1.12025452 C-4.97439397 -0.20823758 -2.97646307 -0.00262475 0 0 Z " fill="#161616" transform="translate(460.6313781738281,308.87974548339844)"/>
<path d="M0 0 C34.83788801 -0.04575356 69.67576918 -0.08100706 104.51368074 -0.10213066 C108.62435492 -0.10463214 112.73502904 -0.10722078 116.84570312 -0.10986328 C117.66408233 -0.1103879 118.48246154 -0.11091252 119.32564011 -0.11145304 C132.5857928 -0.1201614 145.84592819 -0.13593374 159.10607061 -0.15430559 C172.70691809 -0.17299267 186.30775651 -0.1841142 199.9086163 -0.18817699 C208.30459382 -0.19092453 216.70052245 -0.19960995 225.09648493 -0.21583293 C230.84983451 -0.22638511 236.60315872 -0.22960464 242.35651729 -0.22700275 C245.67848828 -0.2257187 249.00035536 -0.22880537 252.32231522 -0.23841095 C255.92057342 -0.2483085 259.51861958 -0.24598781 263.11688232 -0.24050903 C264.17135079 -0.24633472 265.22581926 -0.2521604 266.31224132 -0.25816262 C267.75586319 -0.25218947 267.75586319 -0.25218947 269.22864914 -0.24609566 C270.47489126 -0.24723482 270.47489126 -0.24723482 271.74631 -0.24839699 C274.22260627 0.0245352 275.85694677 0.760076 278 2 C277.34 2.33 276.68 2.66 276 3 C276.66 4.32 277.32 5.64 278 7 C277.34 7.33 276.68 7.66 276 8 C275.01 7.67 274.02 7.34 273 7 C271.23679893 6.89810183 269.47003652 6.85370324 267.70393372 6.84178162 C266.05698769 6.82709839 266.05698769 6.82709839 264.37677002 6.81211853 C263.17195984 6.80636307 261.96714966 6.8006076 260.72583008 6.79467773 C259.45742783 6.78477814 258.18902557 6.77487854 256.88218689 6.76467896 C253.40315682 6.7376366 249.92411319 6.71662343 246.44503617 6.69667697 C242.80949828 6.67481329 239.17400214 6.64742647 235.53849792 6.62062073 C228.65375663 6.57069901 221.76899216 6.52575825 214.88420552 6.48259836 C207.04628899 6.43322154 199.20841436 6.37830506 191.37053835 6.32291877 C175.24706419 6.20910672 159.12355162 6.10226598 143 6 C143 5.67 143 5.34 143 5 C144.98 4.67 146.96 4.34 149 4 C149 3.34 149 2.68 149 2 C75.245 1.505 75.245 1.505 0 1 C0 0.67 0 0.34 0 0 Z " fill="#2F2F2D" transform="translate(448,308)"/>
<path d="M0 0 C5.79792941 1.68728805 8.60799551 5.75232169 11.73828125 10.68359375 C14.7400382 16.1945593 15.85416463 20.76459817 15 27 C13.64813141 30.99415721 11.69719724 33.51970857 8.1875 35.9375 C4.45752779 37.18082407 1.90918263 37.48864783 -2 37 C-8.52027151 33.67333086 -13.35244583 28.43142685 -15.875 21.5625 C-17.52104461 15.75698936 -18.14672968 10.63371987 -15.1875 5.125 C-11.00782391 -0.84596585 -6.77065031 -0.79472572 0 0 Z " fill="#191D1C" transform="translate(308,350)"/>
<path d="M0 0 C3.65177031 2.13019935 5.42283879 4.13561367 7 8 C8.15299981 16.27732493 6.96574231 23.21428903 2 30 C-2.23759584 34.52317296 -6.65072911 36.93999084 -12.890625 37.23046875 C-16.48098159 36.83818905 -18.39431718 35.41956262 -21 33 C-24.55991812 28.01611464 -24.91332203 22.91484744 -24 17 C-21.70010846 10.04921668 -18.03358358 5.1186427 -12 1 C-8.29778834 -0.85110583 -4.04093083 -0.46454795 0 0 Z " fill="#212424" transform="translate(426,350)"/>
<path d="M0 0 C0.495 0.99 0.495 0.99 1 2 C0.13549805 4.16723633 0.13549805 4.16723633 -1.23828125 6.83203125 C-1.72876953 7.79560547 -2.21925781 8.75917969 -2.72460938 9.75195312 C-3.51061523 11.26692383 -3.51061523 11.26692383 -4.3125 12.8125 C-5.33116135 14.79728796 -6.34814633 16.78293736 -7.36328125 18.76953125 C-7.82001221 19.65229736 -8.27674316 20.53506348 -8.74731445 21.44458008 C-9.16070068 22.28786865 -9.57408691 23.13115723 -10 24 C-10.43376953 24.8257251 -10.86753906 25.6514502 -11.31445312 26.50219727 C-12.25652492 29.02191065 -12.25652492 29.02191065 -11.14135742 31.53955078 C-10.63451416 32.41595215 -10.1276709 33.29235352 -9.60546875 34.1953125 C-9.06212891 35.15824219 -8.51878906 36.12117187 -7.95898438 37.11328125 C-7.37439453 38.10714844 -6.78980469 39.10101562 -6.1875 40.125 C-5.05432763 42.105821 -3.92274328 44.08755155 -2.79296875 46.0703125 C-2.2827417 46.94445801 -1.77251465 47.81860352 -1.24682617 48.71923828 C0 51 0 51 1 54 C-9.30676897 50.47882626 -17.24213907 40.51572186 -22 31 C-40.92299198 30.85409814 -40.92299198 30.85409814 -59.82324219 31.64208984 C-66.88742183 32.09992273 -73.92275013 32.09394579 -81 32 C-81 29.69 -81 27.38 -81 25 C-69.87601472 24.82708831 -58.78787949 25.22945874 -47.67236328 25.64208984 C-39.10808516 25.95126553 -30.56922097 26.13320033 -22 26 C-21.566875 24.9275 -21.13375 23.855 -20.6875 22.75 C-16.20946804 13.76195013 -7.73898676 6.19118941 0 0 Z " fill="#F2F2F1" transform="translate(729,647)"/>
<path d="M0 0 C4.84512303 2.70425471 7.34604478 6.81582852 9 12 C10.02879899 19.30447282 8.73338637 24.76325113 4.75 30.9375 C1.77389615 32.74442019 -0.61604988 32.40840777 -4 32 C-8.8720122 29.5073426 -10.48417711 25.59880588 -12.2734375 20.66015625 C-13.75573794 15.23302399 -13.72762661 10.87103986 -11.6875 5.625 C-8.26937429 0.30791557 -6.63455444 -0.80072209 0 0 Z " fill="#81AEAA" transform="translate(340,322)"/>
<path d="M0 0 C2.92266714 2.11426985 3.71970582 2.78516438 5 6 C6.34024519 14.8260049 5.35369649 22.70087578 0 30 C-3.21575507 32.14383672 -5.23130424 32.47513667 -9.0625 32.390625 C-11 32 -11 32 -13.4375 29.6875 C-16.86166881 23.79792964 -16.70617839 17.64592329 -16 11 C-13.0978562 3.48925186 -8.41117293 -1.32807994 0 0 Z " fill="#81AEAB" transform="translate(392,322)"/>
<path d="M0 0 C0.96282898 -0.00540298 1.92565796 -0.01080597 2.91766357 -0.01637268 C6.10614584 -0.02889923 9.29373217 -0.01234375 12.48217773 0.00561523 C14.69270373 0.00546035 16.90323 0.00397315 19.11375427 0.00120544 C23.74832145 -0.00018027 28.3825798 0.01240959 33.01708984 0.03515625 C38.96836941 0.06355772 44.91913623 0.06080125 50.87045383 0.04806614 C55.43511869 0.0411238 59.99966426 0.04888143 64.56431389 0.06132317 C66.75924154 0.06585056 68.95418194 0.06616329 71.14911079 0.06225777 C74.21165521 0.0593593 77.2734834 0.07578662 80.3359375 0.09765625 C81.70666664 0.09090378 81.70666664 0.09090378 83.10508728 0.08401489 C85.62452698 0.11402893 85.62452698 0.11402893 89.60327148 0.50170898 C90.59327148 1.98670898 90.59327148 1.98670898 91.60327148 3.50170898 C91.27327148 4.16170898 90.94327148 4.82170898 90.60327148 5.50170898 C80.18385798 5.68379582 80.18385798 5.68379582 75.60327148 4.50170898 C75.27327148 4.50170898 74.94327148 4.50170898 74.60327148 4.50170898 C45.60327148 4.50170898 16.60327148 4.50170898 -12.39672852 4.50170898 C-9.84799459 -0.99574157 -5.30374838 -0.05623683 0 0 Z " fill="#141413" transform="translate(636.396728515625,455.498291015625)"/>
<path d="M0 0 C5.67705502 2.0206467 8.89948597 6.21011805 11.8671875 11.359375 C13.16099435 14.4398675 12.97666934 17.01596949 12.6875 20.3125 C11.53110194 22.62529611 10.51340172 24.48659828 8.6875 26.3125 C5.65674976 26.81762504 3.54568509 26.80418744 0.83984375 25.25390625 C-3.74243248 21.6639701 -6.0797367 17.99201661 -7.3125 12.3125 C-7.81075533 8.11291936 -7.70522939 6.06654044 -5.75 2.3125 C-3.3125 0.3125 -3.3125 0.3125 0 0 Z " fill="#82AFAA" transform="translate(304.3125,354.6875)"/>
<path d="M0 0 C2.98201229 4.47301843 2.60189295 8.75600763 2 14 C0.375 17.375 0.375 17.375 -2 20 C-2.44730469 20.49628906 -2.89460938 20.99257813 -3.35546875 21.50390625 C-6.20471795 24.30732302 -7.73323817 24.99555397 -11.75 25.0625 C-15 24 -15 24 -16.171875 22.1953125 C-17.60715143 18.39047592 -17.74398284 14.9933438 -17 11 C-12.97425352 2.82151189 -9.19203779 -0.72952681 0 0 Z " fill="#83B0AB" transform="translate(425,356)"/>
<path d="M0 0 C0 0.33 0 0.66 0 1 C-1.98 1 -3.96 1 -6 1 C-6.33 1.99 -6.66 2.98 -7 4 C-7.64324219 3.855625 -8.28648437 3.71125 -8.94921875 3.5625 C-20.58092472 1.17310534 -30.07201552 1.33639708 -41.2331543 5.20996094 C-46.63356295 7.03980237 -51.35044629 7.61112961 -57 7 C-53.78425284 4.44837454 -50.95087809 3.16730489 -47 2 C-47.33 1.34 -47.66 0.68 -48 0 C-29.78026179 -5.28655616 -18.14568537 -5.58943004 0 0 Z " fill="#202623" transform="translate(386,435)"/>
<path d="M0 0 C3.65177031 2.13019935 5.42283879 4.13561367 7 8 C8.18833428 16.53098928 6.48742434 22.75601499 2 30 C0.68 29.34 -0.64 28.68 -2 28 C-1.67386719 27.32324219 -1.34773438 26.64648438 -1.01171875 25.94921875 C0.19789081 22.42313684 0.23063064 19.53349811 0.1875 15.8125 C0.18105469 14.58144531 0.17460937 13.35039062 0.16796875 12.08203125 C0.20978133 9.08799813 0.20978133 9.08799813 -1 7 C-6.39449293 6.72570375 -9.51925805 6.63944354 -14 10 C-14.66 9.34 -15.32 8.68 -16 8 C-15.9375 5.5625 -15.9375 5.5625 -15 3 C-10.80710489 -0.92238575 -5.41835729 -0.81097124 0 0 Z " fill="#191C1C" transform="translate(426,350)"/>
<path d="M0 0 C2.5 1.5625 2.5 1.5625 4 4 C4.72125695 8.40768137 4.52001338 10.25937488 1.9375 13.9375 C-1.74062512 16.52001338 -3.59231863 16.72125695 -8 16 C-10.4375 14.5 -10.4375 14.5 -12 12 C-12.79841448 7.98323437 -12.61897146 5.0316191 -10.5 1.5 C-6.9683809 -0.61897146 -4.01676563 -0.79841448 0 0 Z " fill="#171717" transform="translate(629,660)"/>
<path d="M0 0 C0.84139757 2.86460547 1.01500321 5.15860156 0.8125 8.125 C0.74670781 14.7590455 2.85745926 20.68831131 7.375 25.5625 C10.29345354 27.16070075 12.70117785 27.69313282 16 28 C15.01 30.475 15.01 30.475 14 33 C8.66689031 33.50791521 6.13879419 32.34625913 2 29 C-3.46945567 23.28193271 -5.28104155 18.23473641 -5.4375 10.375 C-5.47746094 9.26898438 -5.51742188 8.16296875 -5.55859375 7.0234375 C-5 4 -5 4 -2.47265625 1.6015625 C-1.65667969 1.07304687 -0.84070313 0.54453125 0 0 Z " fill="#161A18" transform="translate(327,327)"/>
<path d="M0 0 C16.5 0 33 0 50 0 C50 0.33 50 0.66 50 1 C49.08476563 1.03738281 48.16953125 1.07476563 47.2265625 1.11328125 C46.03804687 1.17902344 44.84953125 1.24476563 43.625 1.3125 C42.44164062 1.37050781 41.25828125 1.42851563 40.0390625 1.48828125 C39.03617188 1.65714844 38.03328125 1.82601562 37 2 C36.34 2.99 35.68 3.98 35 5 C33.02880859 5.34057617 33.02880859 5.34057617 30.6484375 5.29296875 C29.79765625 5.28330078 28.946875 5.27363281 28.0703125 5.26367188 C27.18085937 5.23853516 26.29140625 5.21339844 25.375 5.1875 C24.4778125 5.17396484 23.580625 5.16042969 22.65625 5.14648438 C20.43690211 5.11106925 18.21874812 5.06168461 16 5 C16.33 4.01 16.66 3.02 17 2 C11.39 1.67 5.78 1.34 0 1 C0 0.67 0 0.34 0 0 Z " fill="#111110" transform="translate(528,603)"/>
<path d="M0 0 C1.65 0.33 3.3 0.66 5 1 C5.33872513 2.41538717 5.67074624 3.83237963 6 5.25 C6.185625 6.03890625 6.37125 6.8278125 6.5625 7.640625 C7 10 7 10 7 14 C5.52168779 14.19412181 4.04230684 14.38012131 2.5625 14.5625 C1.73878906 14.66691406 0.91507812 14.77132813 0.06640625 14.87890625 C-0.61550781 14.91886719 -1.29742187 14.95882813 -2 15 C-3 14 -3 14 -3.25 10.3125 C-3.2207389 6.25252227 -2.10302439 3.50504065 0 0 Z " fill="#1D1D1D" transform="translate(332,300)"/>
<path d="M0 0 C6.4211288 0.62952243 6.4211288 0.62952243 9.34375 2.5 C12.47600631 4.26880356 14.74078363 4.49125185 18.3125 4.6875 C19.91544922 4.78611328 19.91544922 4.78611328 21.55078125 4.88671875 C22.35902344 4.92410156 23.16726563 4.96148437 24 5 C23.67 5.66 23.34 6.32 23 7 C20.4375 7.625 20.4375 7.625 18 8 C18.99 8.66 19.98 9.32 21 10 C14.17490807 10.4516605 7.46562569 10.73492707 2 6 C1.3515625 3.984375 1.3515625 3.984375 1 2 C0.67 1.34 0.34 0.68 0 0 Z " fill="#151A17" transform="translate(316,431)"/>
<path d="M0 0 C2.3125 0 2.3125 0 5 1 C7.39937639 5.01145741 8.43692732 9.33944189 8 14 C4.66666667 14 1.33333333 14 -2 14 C-2.25328119 8.93437617 -1.33583899 4.84241633 0 0 Z " fill="#1D1D1D" transform="translate(388,300)"/>
<path d="M0 0 C-0.66 3.3 -1.32 6.6 -2 10 C-6 11 -6 11 -10 11 C-10.99 11.495 -10.99 11.495 -12 12 C-12.48 4.8 -12.48 4.8 -10.5 1.5 C-6.85991277 -0.68405234 -4.20345267 -0.28023018 0 0 Z " fill="#1D1D1B" transform="translate(629,660)"/>
<path d="M0 0 C1.65 0 3.3 0 5 0 C6.16983345 2.3396669 6.1661241 3.83391527 6.1875 6.4375 C6.20167969 7.21996094 6.21585937 8.00242187 6.23046875 8.80859375 C6 11 6 11 4 14 C1.69 13.34 -0.62 12.68 -3 12 C-3.88336837 9.5332355 -4.1312406 8.36140628 -3.22265625 5.859375 C-2.83980469 5.16328125 -2.45695312 4.4671875 -2.0625 3.75 C-1.68222656 3.04359375 -1.30195313 2.3371875 -0.91015625 1.609375 C-0.60980469 1.07828125 -0.30945313 0.5471875 0 0 Z " fill="#1F1F20" transform="translate(427,337)"/>
<path d="M0 0 C3.4340702 1.38517117 4.70022022 2.65444364 6.25 6 C6.58515625 6.70125 6.9203125 7.4025 7.265625 8.125 C8 10 8 10 8 12 C2.54230769 15.10096154 2.54230769 15.10096154 -0.203125 14.58984375 C-0.79609375 14.39519531 -1.3890625 14.20054687 -2 14 C-2.05389087 12.04196493 -2.09274217 10.08351091 -2.125 8.125 C-2.14820313 7.03445313 -2.17140625 5.94390625 -2.1953125 4.8203125 C-2 2 -2 2 0 0 Z " fill="#292727" transform="translate(294,336)"/>
<path d="M0 0 C2.9518568 0.43409659 5.13831529 1.07069448 7.8125 2.4375 C11.53270871 4.26113172 14.96461714 5.09551763 19 6 C18.67 6.99 18.34 7.98 18 9 C11.67853027 10.19175249 7.26173931 10.30541345 1.49609375 7.30078125 C-0.41291493 5.64099042 -0.72042996 4.48670194 -1 2 C-0.67 1.34 -0.34 0.68 0 0 Z " fill="#1F1F1E" transform="translate(290,757)"/>
<path d="M0 0 C0 0.99 0 1.98 0 3 C-4.62 5.64 -9.24 8.28 -14 11 C-14.33 10.34 -14.66 9.68 -15 9 C-15.99 9 -16.98 9 -18 9 C-13.74551344 3.26288933 -7.44896578 -4.61835878 0 0 Z " fill="#141918" transform="translate(333,392)"/>
<path d="M0 0 C2.0625 0.4375 2.0625 0.4375 4 1 C3.40895235 5.84659077 2.02055843 9.60748167 0 14 C-1.65 14 -3.3 14 -5 14 C-5.9970971 11.37511186 -6.13116719 10.31725398 -5.0390625 7.67578125 C-4.57242188 6.89589844 -4.10578125 6.11601563 -3.625 5.3125 C-3.16351562 4.52488281 -2.70203125 3.73726562 -2.2265625 2.92578125 C-1 1 -1 1 0 0 Z " fill="#1A1919" transform="translate(663,637)"/>
<path d="M0 0 C-1.88126636 3.32839433 -3.19216921 5.57685054 -6.625 7.375 C-11.11379327 8.20625801 -15.44967374 8.16186931 -20 8 C-16.78425284 5.44837454 -13.95087809 4.16730489 -10 3 C-10.33 2.34 -10.66 1.68 -11 1 C-3.57142857 -1.42857143 -3.57142857 -1.42857143 0 0 Z " fill="#212827" transform="translate(349,434)"/>
<path d="M0 0 C0 0.99 0 1.98 0 3 C-3.37362154 5.60250805 -5.76907828 6.36265043 -10 6 C-9.67 5.34 -9.34 4.68 -9 4 C-9.90492188 4.03480469 -9.90492188 4.03480469 -10.828125 4.0703125 C-12.02695312 4.09738281 -12.02695312 4.09738281 -13.25 4.125 C-14.03890625 4.14820313 -14.8278125 4.17140625 -15.640625 4.1953125 C-18.20731941 3.9828378 -19.7916067 3.28654105 -22 2 C-21.19175781 1.95101563 -20.38351562 1.90203125 -19.55078125 1.8515625 C-18.48214844 1.77679688 -17.41351563 1.70203125 -16.3125 1.625 C-14.72888672 1.52058594 -14.72888672 1.52058594 -13.11328125 1.4140625 C-0.78809932 -0.22517123 -0.78809932 -0.22517123 0 0 Z " fill="#141918" transform="translate(406,434)"/>
<path d="M0 0 C4.0369867 1.79421631 6.64480474 3.20551875 9 7 C8.01 7 7.02 7 6 7 C6 7.66 6 8.32 6 9 C1.75354935 9 -0.38524772 7.18249194 -4 5 C-2.68 3.35 -1.36 1.7 0 0 Z " fill="#272727" transform="translate(736,296)"/>
<path d="M0 0 C1.0725 0.268125 2.145 0.53625 3.25 0.8125 C3.25 1.1425 3.25 1.4725 3.25 1.8125 C1.5484375 2.245625 1.5484375 2.245625 -0.1875 2.6875 C-1.363125 3.05875 -2.53875 3.43 -3.75 3.8125 C-5.13226016 6.57702033 -4.84525387 8.8586363 -4.8125 11.9375 C-4.79896484 13.58105469 -4.79896484 13.58105469 -4.78515625 15.2578125 C-4.77355469 16.10085938 -4.76195312 16.94390625 -4.75 17.8125 C-7.71724168 13.36163747 -8.20703732 10.11413289 -7.75 4.8125 C-5.54816941 0.58498527 -4.85510537 -0.24275527 0 0 Z " fill="#7B9B96" transform="translate(304.75,355.1875)"/>
<path d="M0 0 C1.65 0 3.3 0 5 0 C5.96516243 3.00272755 6.22393475 5.04215769 5 8 C4.01 8.33 3.02 8.66 2 9 C-1.07692308 4.56923077 -1.07692308 4.56923077 -0.6875 1.6875 C-0.460625 1.130625 -0.23375 0.57375 0 0 Z " fill="#212522" transform="translate(294,370)"/>
<path d="M0 0 C0 0.66 0 1.32 0 2 C0.66 2.33 1.32 2.66 2 3 C-1.21182149 4.90608098 -3.53882603 5.22266247 -7.25 5.125 C-8.14203125 5.10695313 -9.0340625 5.08890625 -9.953125 5.0703125 C-10.96632813 5.03550781 -10.96632813 5.03550781 -12 5 C-8.38374134 2.14299911 -4.74978248 0 0 0 Z " fill="#3E3D3A" transform="translate(341,437)"/>
<path d="M0 0 C3.63 0 7.26 0 11 0 C9.02 0.99 9.02 0.99 7 2 C5.74478166 2.69904436 4.49448778 3.40702628 3.25 4.125 C2.1775 4.74375 1.105 5.3625 0 6 C-1.125 2.25 -1.125 2.25 0 0 Z " fill="#0D1514" transform="translate(412,354)"/>
<path d="M0 0 C0.66 0 1.32 0 2 0 C2.05422947 1.4370809 2.09289723 2.87475462 2.125 4.3125 C2.14820313 5.11300781 2.17140625 5.91351563 2.1953125 6.73828125 C2 9 2 9 0 12 C-0.66 12 -1.32 12 -2 12 C-2 11.01 -2 10.02 -2 9 C-1.34 9 -0.68 9 0 9 C0 6.03 0 3.06 0 0 Z " fill="#3A3A3A" transform="translate(431,339)"/>
<path d="M0 0 C0.99 0.33 1.98 0.66 3 1 C-0.3 3.97 -3.6 6.94 -7 10 C-7.66 9.67 -8.32 9.34 -9 9 C-6.03 6.03 -3.06 3.06 0 0 Z " fill="#252424" transform="translate(720,647)"/>
<path d="M0 0 C1.32 0 2.64 0 4 0 C3.67 1.65 3.34 3.3 3 5 C1.68 4.67 0.36 4.34 -1 4 C-0.67 2.68 -0.34 1.36 0 0 Z " fill="#E3E3E3" transform="translate(623,666)"/>
<path d="M0 0 C-0.66 1.32 -1.32 2.64 -2 4 C-3.65 4 -5.3 4 -7 4 C-7 3.01 -7 2.02 -7 1 C-3.375 -1.125 -3.375 -1.125 0 0 Z " fill="#111616" transform="translate(381,324)"/>
<path d="M0 0 C0.66 0.99 1.32 1.98 2 3 C0.02 5.97 0.02 5.97 -2 9 C-3.32 8.67 -4.64 8.34 -6 8 C-5.195625 7.236875 -4.39125 6.47375 -3.5625 5.6875 C-0.83200976 3.20569102 -0.83200976 3.20569102 0 0 Z " fill="#20302C" transform="translate(425,371)"/>
<path d="M0 0 C0 3 0 3 -1.53125 4.60546875 C-2.1809375 5.12753906 -2.830625 5.64960938 -3.5 6.1875 C-4.1496875 6.71730469 -4.799375 7.24710937 -5.46875 7.79296875 C-5.9740625 8.19128906 -6.479375 8.58960938 -7 9 C-5.64978174 4.58110387 -3.73884332 2.65654657 0 0 Z " fill="#83A39E" transform="translate(351,370)"/>
<path d="M0 0 C1.98 0 3.96 0 6 0 C5.01 0.495 5.01 0.495 4 1 C3.67 1.99 3.34 2.98 3 4 C0.69 4 -1.62 4 -4 4 C-4 3.67 -4 3.34 -4 3 C-2.35 3 -0.7 3 1 3 C0.67 2.01 0.34 1.02 0 0 Z " fill="#0E130F" transform="translate(363,431)"/>
<path d="M0 0 C0.99 0.99 1.98 1.98 3 3 C0.525 4.485 0.525 4.485 -2 6 C-2 2 -2 2 0 0 Z " fill="#262526" transform="translate(424,378)"/>
<path d="M0 0 C-0.99 0.66 -1.98 1.32 -3 2 C-2.01 3.485 -2.01 3.485 -1 5 C-2.875 4.75 -2.875 4.75 -5 4 C-6.25 1.9375 -6.25 1.9375 -7 0 C-3.86650268 -1.04449911 -3.01031744 -0.93423645 0 0 Z " fill="#252D2C" transform="translate(356,432)"/>
<path d="M0 0 C0.33 1.32 0.66 2.64 1 4 C-0.65 4.33 -2.3 4.66 -4 5 C-4.33 4.01 -4.66 3.02 -5 2 C-4.34 1.67 -3.68 1.34 -3 1 C-2.34 1.33 -1.68 1.66 -1 2 C-0.67 1.34 -0.34 0.68 0 0 Z " fill="#2D2C2C" transform="translate(698,684)"/>
<path d="M0 0 C0.66 0.33 1.32 0.66 2 1 C2 2.65 2 4.3 2 6 C0.68 6 -0.64 6 -2 6 C-1.34 4.02 -0.68 2.04 0 0 Z " fill="#262525" transform="translate(394,308)"/>
</svg>
